<!-- Generated by IcoMoon.io -->
<svg version="1.1" xmlns="http://www.w3.org/2000/svg" width="32" height="32" viewBox="0 0 32 32">
<title>logo</title>
<path fill="#f1f1f2" d="M16.596 3.365v-1.587c0-0.001 0-0.001 0-0.002 0-0.232-0.187-0.42-0.419-0.422h-0.563c-0.232 0.004-0.418 0.192-0.419 0.424v1.597c-6.938 0.324-12.79 4.822-15.196 11.084 1.206-0.861 2.71-1.377 4.335-1.377 2.347 0 4.442 1.076 5.819 2.763l0.011 0.014c1.225-1.493 2.991-2.504 4.994-2.73l0.034-0.003v13.974c0 1.172-0.938 2.125-2.097 2.125h-0.076c-1.158 0-2.098-0.955-2.098-2.125v-0.892c0 0 0-0 0-0 0-0.234-0.188-0.424-0.422-0.427h-0.56c-0.233 0.003-0.421 0.193-0.421 0.427 0 0 0 0 0 0v0 0.892c0 1.955 1.569 3.547 3.5 3.547h0.076c1.93 0 3.5-1.592 3.5-3.547v-13.985c2.119 0.175 3.97 1.2 5.229 2.731l0.010 0.013c1.388-1.699 3.484-2.775 5.831-2.775 1.624 0 3.127 0.515 4.356 1.391l-0.023-0.016c-2.43-6.322-8.379-10.848-15.404-11.092z"></path>
<path fill="#000" opacity="0.2" d="M16.596 3.365v-1.587c0-0.001 0-0.001 0-0.002 0-0.232-0.187-0.42-0.419-0.422h-0.563c-0.232 0.004-0.418 0.192-0.419 0.424v1.597c-6.938 0.324-12.79 4.822-15.196 11.084 1.206-0.861 2.71-1.377 4.335-1.377 2.347 0 4.442 1.076 5.819 2.763l0.011 0.014c1.225-1.493 2.991-2.504 4.994-2.73l0.034-0.003v13.974c0 1.172-0.938 2.125-2.097 2.125h-0.076c-1.158 0-2.098-0.955-2.098-2.125v-0.892c0 0 0-0 0-0 0-0.234-0.188-0.424-0.422-0.427h-0.56c-0.233 0.003-0.421 0.193-0.421 0.427 0 0 0 0 0 0v0 0.892c0 1.955 1.569 3.547 3.5 3.547h0.076c1.93 0 3.5-1.592 3.5-3.547v-13.985c2.119 0.175 3.97 1.2 5.229 2.731l0.010 0.013c1.388-1.699 3.484-2.775 5.831-2.775 1.624 0 3.127 0.515 4.356 1.391l-0.023-0.016c-2.43-6.322-8.379-10.848-15.404-11.092z"></path>
<path fill="#0088cf" d="M15.986 3.391c-6.513 5.344-5.821 12.467-5.821 12.467 1.225-1.493 2.99-2.503 4.994-2.729l0.034-0.003 1.402-0.011c2.111 0.174 3.956 1.194 5.214 2.715l0.010 0.013c-0.195-9.772-5.834-12.451-5.834-12.451z"></path>
</svg>
